HIERARCHY
ROOT Hips
{
	OFFSET 0.000000 0.000000 0.000000
	CHANNELS 6 Xposition Yposition Zposition Xrotation Yrotation Zrotation
	JOINT LeftUpLeg_virtual
	{
		OFFSET 0.000000 0.000000 0.000000
		CHANNELS 3 Xrotation Yrotation Zrotation
		JOINT LeftUpLeg
		{
			OFFSET 10.205400 -3.823500 0.155100
			CHANNELS 3 Xrotation Yrotation Zrotation
			JOINT LeftLeg
			{
				OFFSET 0.708757 -12.982077 0.567790
				CHANNELS 3 Xrotation Yrotation Zrotation
				JOINT LeftFoot
				{
					OFFSET -0.708756 -10.717838 -2.184338
					CHANNELS 3 Xrotation Yrotation Zrotation
					JOINT LeftToeBase
					{
						OFFSET 0.108149 -7.191104 7.560241
						CHANNELS 3 Xrotation Yrotation Zrotation
						JOINT LeftToe_End
						{
							OFFSET 0.070230 0.081724 4.490308
							CHANNELS 3 Xrotation Yrotation Zrotation
							End Site
							{
								OFFSET 0 0 0
							}
						}
					}
				}
			}
		}
	}
	JOINT RightUpLeg_virtual
	{
		OFFSET 0.000000 0.000000 0.000000
		CHANNELS 3 Xrotation Yrotation Zrotation
		JOINT RightUpLeg
		{
			OFFSET -10.205400 -3.823500 0.005500
			CHANNELS 3 Xrotation Yrotation Zrotation
			JOINT RightLeg
			{
				OFFSET -0.708756 -12.982134 0.610632
				CHANNELS 3 Xrotation Yrotation Zrotation
				JOINT RightFoot
				{
					OFFSET 0.708754 -10.717769 -1.945823
					CHANNELS 3 Xrotation Yrotation Zrotation
					JOINT RightToeBase
					{
						OFFSET -0.108140 -7.191069 7.372968
						CHANNELS 3 Xrotation Yrotation Zrotation
						JOINT RightToe_End
						{
							OFFSET -0.070227 0.081735 4.479403
							CHANNELS 3 Xrotation Yrotation Zrotation
							End Site
							{
								OFFSET 0 0 0
							}
						}
					}
				}
			}
		}
	}
	JOINT Spine_virtual
	{
		OFFSET 0.000000 0.000000 0.000000
		CHANNELS 3 Xrotation Yrotation Zrotation
		JOINT Spine
		{
			OFFSET 0.000000 6.876099 0.125700
			CHANNELS 3 Xrotation Yrotation Zrotation
			JOINT Spine1
			{
				OFFSET 0.000000 5.730043 0.104720
				CHANNELS 3 Xrotation Yrotation Zrotation
				JOINT Spine1_split
				{
					OFFSET 0.000000 5.730043 0.104720
					CHANNELS 3 Xrotation Yrotation Zrotation
					JOINT Spine2
					{
						OFFSET 0.000000 5.730043 0.104720
						CHANNELS 3 Xrotation Yrotation Zrotation
						JOINT Neck_virtual
						{
							OFFSET 0.000000 0.000000 0.000000
							CHANNELS 3 Xrotation Yrotation Zrotation
							JOINT Neck
							{
								OFFSET 0.000000 10.314075 0.188496
								CHANNELS 3 Xrotation Yrotation Zrotation
								JOINT Head
								{
									OFFSET 0.000000 7.643700 -2.377400
									CHANNELS 3 Xrotation Yrotation Zrotation
									JOINT HeadTop_End
									{
										OFFSET 0.000000 43.788605 -13.619600
										CHANNELS 3 Xrotation Yrotation Zrotation
										End Site
										{
											OFFSET 0 0 0
										}
									}
								}
							}
						}
						JOINT LeftShoulder_virtual
						{
							OFFSET 0.000000 0.000000 0.000000
							CHANNELS 3 Xrotation Yrotation Zrotation
							JOINT LeftShoulder
							{
								OFFSET 2.196100 4.412489 0.087492
								CHANNELS 3 Xrotation Yrotation Zrotation
								JOINT LeftShoulder_split
								{
									OFFSET 2.196100 4.412489 0.087492
									CHANNELS 3 Xrotation Yrotation Zrotation
									JOINT LeftArm
									{
										OFFSET 8.771219 -2.981674 -0.026999
										CHANNELS 3 Xrotation Yrotation Zrotation
										JOINT LeftForeArm
										{
											OFFSET 8.512804 0.000000 -0.000000
											CHANNELS 3 Xrotation Yrotation Zrotation
											JOINT LeftHand
											{
												OFFSET 18.484802 0.000000 -0.000000
												CHANNELS 3 Xrotation Yrotation Zrotation
												End Site
												{
													OFFSET 0 0 0
												}
											}
										}
									}
								}
							}
						}
						JOINT RightShoulder_virtual
						{
							OFFSET 0.000000 0.000000 0.000000
							CHANNELS 3 Xrotation Yrotation Zrotation
							JOINT RightShoulder
							{
								OFFSET -2.196100 4.412496 0.070690
								CHANNELS 3 Xrotation Yrotation Zrotation
								JOINT RightShoulder_split
								{
									OFFSET -2.196100 4.412496 0.070690
									CHANNELS 3 Xrotation Yrotation Zrotation
									JOINT RightArm
									{
										OFFSET -8.771282 -2.981682 -0.094208
										CHANNELS 3 Xrotation Yrotation Zrotation
										JOINT RightForeArm
										{
											OFFSET -8.494598 0.000000 0.000000
											CHANNELS 3 Xrotation Yrotation Zrotation
											JOINT RightHand
											{
												OFFSET -18.483803 0.000000 0.000001
												CHANNELS 3 Xrotation Yrotation Zrotation
												End Site
												{
													OFFSET 0 0 0
												}
											}
										}
									}
								}
							}
						}
					}
				}
			}
		}
	}
}
MOTION
Frames: 8
Frame Time: 0.03333333
6.414377 13.181041 -4.430607 0.000000 0.000000 0.000000 3.014752 -21.273797 10.396911 -96.475063 -19.251945 42.301011 73.702126 -9.874136 -0.374708 47.968760 13.760620 -29.079254 0.631395 -4.939337 1.610127 0.000000 0.000000 0.000000 0.897623 -20.165782 9.926048 -11.223480 -15.809327 -30.923306 119.866391 26.358897 -21.459729 10.364552 -35.010812 50.998208 15.729492 4.402520 -30.120130 0.000000 0.000000 0.000000 0.431708 -11.528979 9.491361 6.094640 0.896410 -7.968761 3.034147 -4.930129 -2.198709 0.166806 0.072820 -0.097055 0.000000 0.000000 0.000000 2.283226 -2.554290 -2.555614 -14.062699 8.201368 7.615645 -24.701205 23.916087 8.992401 0.000000 0.000000 0.000000 0.597188 -3.833547 -3.167385 0.113540 -1.377390 5.109244 -1.278504 1.077529 -0.759882 8.443254 -3.122130 -50.981642 44.393798 -82.033386 35.122434 0.000000 0.000000 0.000000 3.716473 -3.608415 -3.028330 2.379693 11.175674 10.461031 1.120044 4.155612 9.075264 25.787873 25.793101 22.310833 -170.888041 54.215019 -179.904355 0.000000 0.000000 0.000000 
6.405456 13.188943 -4.429205 0.000000 0.000000 0.000000 3.014091 -21.264788 10.404455 -96.438692 -19.248130 42.319073 73.705289 -9.890579 -0.375087 47.953450 13.768705 -29.085988 0.644705 -4.936695 1.610781 0.000000 0.000000 0.000000 0.899859 -20.164586 9.934081 -11.250651 -15.815571 -30.952457 119.879915 26.345759 -21.453525 10.313106 -35.026812 50.956548 15.803162 4.384229 -30.129385 0.000000 0.000000 0.000000 0.461457 -11.508777 9.499891 6.098335 0.900812 -7.981769 3.038441 -4.933365 -2.205737 0.170696 0.074584 -0.098238 0.000000 0.000000 0.000000 2.282070 -2.554861 -2.564530 -14.050161 8.209359 7.607687 -24.628580 23.925033 8.980980 0.000000 0.000000 0.000000 0.603022 -3.838978 -3.173674 0.109047 -1.376725 5.142450 -1.298475 1.033468 -0.795195 8.416578 -3.103838 -50.948471 44.579900 -82.102282 35.313690 0.000000 0.000000 0.000000 3.719834 -3.613015 -3.032819 2.378697 11.164449 10.478026 1.109374 4.156677 9.070994 25.839523 25.737041 22.257163 -170.882481 54.257636 -179.891938 0.000000 0.000000 0.000000 
6.395909 13.200675 -4.427792 0.000000 0.000000 0.000000 3.031449 -21.256674 10.431172 -96.354606 -19.240250 42.326751 73.664089 -9.880422 -0.385712 47.914805 13.796664 -29.116536 0.665619 -4.929899 1.590081 0.000000 0.000000 0.000000 0.914303 -20.161398 9.962334 -11.344052 -15.800743 -31.015971 119.910528 26.316032 -21.427839 10.265172 -35.043344 50.857302 15.909780 4.365423 -30.129296 0.000000 0.000000 0.000000 0.500017 -11.487177 9.526813 6.115554 0.914777 -8.009158 3.042311 -4.931417 -2.218092 0.171980 0.079681 -0.096844 0.000000 0.000000 0.000000 2.277022 -2.550151 -2.580343 -14.036917 8.210415 7.608733 -24.506854 23.851010 8.973530 0.000000 0.000000 0.000000 0.606590 -3.838118 -3.184828 0.105866 -1.370351 5.178631 -1.291177 0.973217 -0.860303 8.299983 -3.039415 -50.908593 44.881504 -82.244753 35.623258 0.000000 0.000000 0.000000 3.724965 -3.611847 -3.044895 2.374623 11.167752 10.515778 1.104689 4.191924 9.092599 25.835245 25.576904 22.214972 -170.899106 54.277563 -179.858565 0.000000 0.000000 0.000000 
6.386162 13.213948 -4.425945 0.000000 0.000000 0.000000 3.056937 -21.254652 10.469259 -96.239476 -19.233234 42.326774 73.590152 -9.849555 -0.404977 47.856516 13.836470 -29.170539 0.685251 -4.920043 1.553247 0.000000 0.000000 0.000000 0.939504 -20.156319 10.004451 -11.480973 -15.775895 -31.092575 119.944488 26.278294 -21.386528 10.248821 -35.049194 50.725633 16.012041 4.354826 -30.125376 0.000000 0.000000 0.000000 0.533320 -11.477276 9.567491 6.143184 0.935194 -8.041949 3.044716 -4.927222 -2.233950 0.169917 0.083977 -0.093541 0.000000 0.000000 0.000000 2.268360 -2.542597 -2.599337 -14.021928 8.207100 7.611286 -24.357039 23.700396 8.962140 0.000000 0.000000 0.000000 0.607861 -3.833345 -3.198413 0.104102 -1.363480 5.207759 -1.262413 0.912697 -0.940668 8.119171 -2.938114 -50.874483 45.246380 -82.420473 35.997460 0.000000 0.000000 0.000000 3.729554 -3.607199 -3.062558 2.370749 11.185071 10.560386 1.090047 4.241812 9.133282 25.791283 25.376547 22.177167 -170.933639 54.278499 -179.809320 0.000000 0.000000 0.000000 
6.376975 13.226715 -4.423813 0.000000 0.000000 0.000000 3.082904 -21.254449 10.511978 -96.110775 -19.231642 42.324459 73.505389 -9.807120 -0.427961 47.790844 13.872846 -29.250886 0.702214 -4.908488 1.508134 0.000000 0.000000 0.000000 0.964904 -20.161026 10.048708 -11.646499 -15.756179 -31.168691 119.973844 26.242557 -21.332564 10.292698 -35.022751 50.620380 16.102823 4.351362 -30.127913 0.000000 0.000000 0.000000 0.557675 -11.478638 9.613642 6.179025 0.957803 -8.068951 3.045795 -4.923750 -2.250878 0.169444 0.085783 -0.091091 0.000000 0.000000 0.000000 2.255176 -2.536830 -2.617562 -14.001304 8.205731 7.605523 -24.198930 23.493424 8.938592 0.000000 0.000000 0.000000 0.610199 -3.829724 -3.211393 0.103855 -1.356660 5.219078 -1.226663 0.875606 -1.012939 7.905018 -2.814552 -50.855055 45.623249 -82.583066 36.381559 0.000000 0.000000 0.000000 3.732555 -3.602619 -3.082563 2.368901 11.219395 10.600892 1.068701 4.303208 9.183838 25.727750 25.194688 22.140504 -170.974552 54.270129 -179.755785 0.000000 0.000000 0.000000 
6.369092 13.236123 -4.422398 0.000000 0.000000 0.000000 3.098046 -21.253460 10.549246 -95.987032 -19.237335 42.323093 73.433304 -9.763500 -0.449187 47.731298 13.890822 -29.360835 0.711031 -4.896737 1.466495 0.000000 0.000000 0.000000 0.971295 -20.179365 10.085143 -11.804700 -15.755158 -31.225074 119.997722 26.214992 -21.280785 10.370181 -34.967748 50.569279 16.174829 4.356297 -30.147567 0.000000 0.000000 0.000000 0.571063 -11.490941 9.660634 6.218661 0.978477 -8.082632 3.045084 -4.924436 -2.266706 0.171647 0.086008 -0.090761 0.000000 0.000000 0.000000 2.237903 -2.537450 -2.632412 -13.971212 8.212929 7.587416 -24.044245 23.259965 8.903205 0.000000 0.000000 0.000000 0.615648 -3.831253 -3.222761 0.104531 -1.350185 5.205092 -1.199640 0.864072 -1.059245 7.706718 -2.679396 -50.855796 45.984935 -82.698455 36.747975 0.000000 0.000000 0.000000 3.732860 -3.602061 -3.103292 2.370425 11.268168 10.630417 1.045005 4.362463 9.235713 25.676032 25.088139 22.104570 -171.006230 54.262581 -179.710391 0.000000 0.000000 0.000000 
6.359982 13.241712 -4.421848 0.000000 0.000000 0.000000 3.102236 -21.251599 10.579563 -95.882879 -19.248926 42.325053 73.384673 -9.722464 -0.468665 47.682589 13.892230 -29.485633 0.710961 -4.886369 1.435420 0.000000 0.000000 0.000000 0.967972 -20.178916 10.115806 -11.908280 -15.780478 -31.240513 120.004962 26.193704 -21.241588 10.400099 -34.918796 50.537304 16.203200 4.377643 -30.189603 0.000000 0.000000 0.000000 0.575707 -11.512061 9.700433 6.256457 0.996122 -8.079862 3.040870 -4.930832 -2.281800 0.174974 0.084880 -0.091146 0.000000 0.000000 0.000000 2.216549 -2.544561 -2.643961 -13.926733 8.233620 7.560692 -23.889780 23.027954 8.857074 0.000000 0.000000 0.000000 0.623599 -3.840486 -3.232111 0.105082 -1.343362 5.162551 -1.188246 0.880827 -1.075157 7.549754 -2.537107 -50.880757 46.313641 -82.753397 37.077836 0.000000 0.000000 0.000000 3.729070 -3.608160 -3.123863 2.377125 11.323921 10.654234 0.996877 4.407759 9.277612 25.667352 25.075212 22.060265 -171.012746 54.260973 -179.684969 0.000000 0.000000 0.000000 
6.349120 13.243507 -4.421124 0.000000 0.000000 0.000000 3.099030 -21.250680 10.602883 -95.807057 -19.266273 42.331972 73.365295 -9.690228 -0.483632 47.651764 13.876246 -29.621728 0.702935 -4.878256 1.418616 0.000000 0.000000 0.000000 0.960754 -20.158624 10.141497 -11.932581 -15.824659 -31.207332 119.994375 26.169983 -21.209414 10.324230 -34.909271 50.468773 16.200336 4.412130 -30.242804 0.000000 0.000000 0.000000 0.571709 -11.534244 9.729970 6.287816 1.008655 -8.063154 3.031388 -4.942249 -2.296234 0.177101 0.081784 -0.091571 0.000000 0.000000 0.000000 2.190886 -2.557478 -2.653842 -13.866249 8.263082 7.536671 -23.721706 22.808227 8.804210 0.000000 0.000000 0.000000 0.630034 -3.857030 -3.239058 0.104437 -1.337122 5.096807 -1.190935 0.906580 -1.062530 7.443101 -2.384215 -50.932649 46.636532 -82.761771 37.399654 0.000000 0.000000 0.000000 3.720682 -3.621494 -3.143452 2.385675 11.375812 10.682393 0.954393 4.464388 9.306632 25.694055 25.137656 22.012580 -170.984196 54.264378 -179.687783 0.000000 0.000000 0.000000 
